# xmcd
#
# Track frame offsets:
#	150
#	21782
#	38262
#	57255
#	72251
#	87672
#	102900
#	119708
#	141272
#	162087
#	179390
#	201034
#	223148
#	251449
#	276898
#	295429
#	312914
#	329751
#
# Disc length: 4512 seconds
#
# Revision: 8
# Processed by: cddbd v1.5.2PL0 Copyright (c) Steve Scherf et al.
# Submitted via: EasyCDDAExtractor 15.3.0.1
#
DISCID=18119e12
DTITLE=Mariah Carey - Me. I Am Mariah... The Elusive Chanteuse (Target Deluxe 
DTITLE=Edition)
DYEAR=2014
DGENRE=R&B/Pop
TTITLE0=Cry.
TTITLE1=Faded
TTITLE2=Dedicated (Featuring Nas)
TTITLE3=#Beautiful (Featuring Miguel)
TTITLE4=Thirsty
TTITLE5=Make It Look Good
TTITLE6=You're Mine (Eternal)
TTITLE7=You Don't Know What To Do (Featuring Wale)
TTITLE8=Supernatural (With Special Guest Stars ''Dembabies'' A.K.A. Ms. Monroe
TTITLE8=and Mr. Moroccan Scott Cannon A.K.A. Roc N' Roe)
TTITLE9=Meteorite
TTITLE10=Camouflage
TTITLE11=Money (Featuring Fabolous)
TTITLE12=One More Try
TTITLE13=Heavenly (No Ways Tired, Can't Give Up Now)
TTITLE14=It's A Wrap (Featuring Mary J. Blige)
TTITLE15=Betcha Gon' Know (Featuring R. Kelly)
TTITLE16=The Art Of Letting Go
TTITLE17=America The Beautiful
EXTD=
EXTT0=
EXTT1=
EXTT2=
EXTT3=
EXTT4=
EXTT5=
EXTT6=
EXTT7=
EXTT8=
EXTT9=
EXTT10=
EXTT11=
EXTT12=
EXTT13=
EXTT14=
EXTT15=
EXTT16=
EXTT17=
PLAYORDER=
